<svg width="23" height="24" viewBox="0 0 23 24" fill="none" xmlns="http://www.w3.org/2000/svg">
<path d="M14.0156 17.1465C14.4125 17.1465 14.7344 16.8246 14.7344 16.4277V9.24023C14.7344 8.84334 14.4125 8.52148 14.0156 8.52148C13.6187 8.52148 13.2969 8.84334 13.2969 9.24023V16.4277C13.2969 16.8246 13.6187 17.1465 14.0156 17.1465Z" fill="#F6921E"/>
<path d="M8.98438 17.1465C9.38127 17.1465 9.70312 16.8246 9.70312 16.4277V9.24023C9.70312 8.84334 9.38127 8.52148 8.98438 8.52148C8.58748 8.52148 8.26562 8.84334 8.26562 9.24023V16.4277C8.26562 16.8246 8.58748 17.1465 8.98438 17.1465Z" fill="#F6921E"/>
<path d="M14.375 3.13086C14.7719 3.13086 15.0938 2.809 15.0938 2.41211C15.0938 2.01522 14.7719 1.69336 14.375 1.69336H8.625C8.22811 1.69336 7.90625 2.01522 7.90625 2.41211C7.90625 2.809 8.22811 3.13086 8.625 3.13086H14.375Z" fill="#F6921E"/>
<path d="M3.59375 3.84961C3.19686 3.84961 2.875 4.17147 2.875 4.56836C2.875 4.96525 3.19686 5.28711 3.59375 5.28711H4.3125V18.5121C4.3125 20.1364 5.635 21.459 7.25938 21.459H15.7406C17.3649 21.459 18.6875 20.1365 18.6875 18.5121V5.28711H19.4062C19.8031 5.28711 20.125 4.96525 20.125 4.56836C20.125 4.17147 19.8031 3.84961 19.4062 3.84961H17.9688H5.03125H3.59375ZM17.25 5.28711V18.5121C17.25 19.3459 16.5744 20.0215 15.7406 20.0215H7.25938C6.42563 20.0215 5.75 19.3459 5.75 18.5121V5.28711H17.25Z" fill="#F6921E"/>
</svg>
