<svg width="21" height="19" viewBox="0 0 21 19" fill="none" xmlns="http://www.w3.org/2000/svg">
<path d="M17.5809 1.82227H15.2709V1.49414C15.2709 1.32009 15.2018 1.15317 15.0787 1.0301C14.9557 0.907031 14.7887 0.837891 14.6147 0.837891C14.4406 0.837891 14.2737 0.907031 14.1506 1.0301C14.0276 1.15317 13.9584 1.32009 13.9584 1.49414V1.82227H7.04156V1.49414C7.04156 1.32009 6.97242 1.15317 6.84935 1.0301C6.72628 0.907031 6.55936 0.837891 6.38531 0.837891C6.21126 0.837891 6.04434 0.907031 5.92127 1.0301C5.7982 1.15317 5.72906 1.32009 5.72906 1.49414V1.82227H3.41906C2.68685 1.824 1.98513 2.11564 1.46737 2.63339C0.949621 3.15114 0.657983 3.85287 0.65625 4.58508V16.0957C0.657983 16.8279 0.949621 17.5296 1.46737 18.0474C1.98513 18.5651 2.68685 18.8568 3.41906 18.8585H17.5809C18.3131 18.8568 19.0149 18.5651 19.5326 18.0474C20.0504 17.5296 20.342 16.8279 20.3438 16.0957V4.58508C20.342 3.85287 20.0504 3.15114 19.5326 2.63339C19.0149 2.11564 18.3131 1.824 17.5809 1.82227ZM3.41906 3.13477H5.72906V3.46289C5.72906 3.63694 5.7982 3.80386 5.92127 3.92693C6.04434 4.05 6.21126 4.11914 6.38531 4.11914C6.55936 4.11914 6.72628 4.05 6.84935 3.92693C6.97242 3.80386 7.04156 3.63694 7.04156 3.46289V3.13477H13.9584V3.46289C13.9584 3.63694 14.0276 3.80386 14.1506 3.92693C14.2737 4.05 14.4406 4.11914 14.6147 4.11914C14.7887 4.11914 14.9557 4.05 15.0787 3.92693C15.2018 3.80386 15.2709 3.63694 15.2709 3.46289V3.13477H17.5809C17.9656 3.13477 18.3345 3.28757 18.6065 3.55955C18.8785 3.83154 19.0312 4.20043 19.0312 4.58508V6.14039H1.96875V4.58508C1.96875 4.20043 2.12155 3.83154 2.39354 3.55955C2.66552 3.28757 3.03442 3.13477 3.41906 3.13477ZM17.5809 17.5723H3.41906C3.22638 17.5723 3.03561 17.5339 2.85792 17.4594C2.68023 17.3849 2.51917 17.2757 2.38414 17.1382C2.24912 17.0008 2.14284 16.8378 2.07152 16.6588C2.0002 16.4798 1.96526 16.2884 1.96875 16.0957V7.45289H19.0312V16.0957C19.0347 16.2884 18.9998 16.4798 18.9285 16.6588C18.8572 16.8378 18.7509 17.0008 18.6159 17.1382C18.4808 17.2757 18.3198 17.3849 18.1421 17.4594C17.9644 17.5339 17.7736 17.5723 17.5809 17.5723Z" fill="#282828"/>
</svg>
