<svg width="19" height="20" viewBox="0 0 19 20" fill="none" xmlns="http://www.w3.org/2000/svg">
<path d="M9.5 19.3594C14.7377 19.3594 19 15.097 19 9.85938C19 4.62172 14.7377 0.359375 9.5 0.359375C4.26229 0.359375 0 4.62172 0 9.85938C0 15.097 4.26234 19.3594 9.5 19.3594ZM9.5 1.62602C14.041 1.62602 17.7334 5.31834 17.7334 9.85938C17.7334 14.4004 14.041 18.0927 9.5 18.0927C4.95897 18.0927 1.26665 14.4004 1.26665 9.85938C1.26665 5.31834 4.95902 1.62602 9.5 1.62602Z" fill="#202020"/>
<path d="M12.2709 12.8865C12.388 12.9815 12.5273 13.0259 12.6667 13.0259C12.8535 13.0259 13.0372 12.9435 13.1607 12.7884C13.3792 12.516 13.3348 12.117 13.0625 11.8985L10.1333 9.55517V4.7925C10.1333 4.44416 9.84836 4.15918 9.50002 4.15918C9.15168 4.15918 8.8667 4.44416 8.8667 4.7925V9.85919C8.8667 10.0524 8.95538 10.2329 9.1042 10.3532L12.2709 12.8865Z" fill="#202020"/>
</svg>
