<svg width="20" height="21" viewBox="0 0 20 21" fill="none" xmlns="http://www.w3.org/2000/svg">
<g clip-path="url(#clip0_63_35363)">
<path d="M16.4283 10.0762C16.0338 10.0762 15.714 10.396 15.714 10.7905V17.9332C15.714 18.3277 15.3943 18.6475 14.9998 18.6475H2.14283C1.74833 18.6475 1.42854 18.3277 1.42854 17.9332V3.64771C1.42854 3.25321 1.74833 2.93342 2.14283 2.93342H10.7141C11.1086 2.93342 11.4284 2.61363 11.4284 2.21913C11.4284 1.82463 11.1086 1.50488 10.7141 1.50488H2.14283C0.959376 1.50488 0 2.46426 0 3.64771V17.9332C0 19.1167 0.959376 20.0761 2.14283 20.0761H14.9998C16.1833 20.0761 17.1426 19.1167 17.1426 17.9332V10.7904C17.1426 10.396 16.8228 10.0762 16.4283 10.0762Z" fill="#F6921E"/>
<path d="M19.1994 0.877149C18.6866 0.364209 17.991 0.0760995 17.2656 0.0761832C16.5399 0.0740906 15.8435 0.362703 15.3321 0.877609L5.92361 10.2853C5.84556 10.3639 5.78667 10.4595 5.75148 10.5646L4.32294 14.8502C4.19826 15.2245 4.40061 15.629 4.7749 15.7536C4.84751 15.7778 4.92356 15.7901 5.00006 15.7902C5.07673 15.7901 5.15295 15.7778 5.22577 15.7538L9.51143 14.3253C9.61669 14.2901 9.71232 14.2309 9.79071 14.1524L19.1991 4.74399C20.267 3.67626 20.2671 1.94501 19.1994 0.877149ZM18.1892 3.73469L8.90357 13.0203L6.12932 13.9467L7.05287 11.176L16.342 1.89043C16.8527 1.38076 17.6799 1.38159 18.1896 1.89227C18.433 2.13623 18.5702 2.46648 18.5713 2.81114C18.5722 3.15763 18.4346 3.4901 18.1892 3.73469Z" fill="#F6921E"/>
</g>
<defs>
<clipPath id="clip0_63_35363">
<rect width="20" height="20" fill="white" transform="translate(0 0.0761719)"/>
</clipPath>
</defs>
</svg>
