<svg width="18" height="14" viewBox="0 0 18 14" fill="none" xmlns="http://www.w3.org/2000/svg">
<path d="M11.2347 7.15723L12.257 6.09702C12.3314 6.38562 12.375 6.68735 12.375 7.00002C12.375 8.92997 10.861 10.5 9 10.5C8.6985 10.5 8.40755 10.4548 8.12925 10.3777L9.15159 9.31745C10.2694 9.23841 11.1585 8.31645 11.2347 7.15723ZM17.9291 6.71666C17.8599 6.5876 16.8787 4.8045 14.9605 3.29338L14.142 4.14228C15.5406 5.20875 16.4268 6.45256 16.7757 7.00089C16.109 8.05366 13.4937 11.6667 9 11.6667C8.32613 11.6667 7.6995 11.5773 7.10986 11.4347L6.18553 12.3932C7.03533 12.6634 7.96936 12.8333 9 12.8333C14.8884 12.8333 17.8078 7.50985 17.9291 7.28337C18.0236 7.10706 18.0236 6.89298 17.9291 6.71666ZM15.5852 0.995784L3.21019 13.8291C3.10036 13.943 2.95636 14 2.8125 14C2.66864 14 2.52464 13.943 2.41481 13.8291C2.19502 13.6011 2.19502 13.232 2.41481 13.0043L3.98925 11.3715C1.44394 9.77799 0.150609 7.43227 0.070875 7.28337C-0.023625 7.10706 -0.023625 6.89283 0.070875 6.71652C0.192234 6.49019 3.11161 1.1667 9 1.1667C10.5225 1.1667 11.8413 1.52691 12.9687 2.05949L14.7898 0.170953C15.0096 -0.0569842 15.3655 -0.0569842 15.5852 0.170953C15.8048 0.39889 15.805 0.767992 15.5852 0.995784ZM4.82808 10.5016L6.25219 9.02476C5.85886 8.45251 5.625 7.7547 5.625 7.00002C5.625 5.07006 7.13897 3.50003 9 3.50003C9.72773 3.50003 10.4006 3.74255 10.9524 4.1503L12.104 2.95607C11.1942 2.57822 10.1603 2.33336 9 2.33336C4.50633 2.33336 1.89098 5.94637 1.22442 6.99914C1.6477 7.66443 2.86439 9.34851 4.82808 10.5016ZM7.0688 8.17776L10.1357 4.99729C9.80114 4.7924 9.41597 4.66669 9 4.66669C7.75941 4.66669 6.75 5.71348 6.75 7.00002C6.75 7.43139 6.87122 7.83083 7.0688 8.17776Z" fill="white"/>
</svg>
