<?xml version="1.0" standalone="no"?>
<!DOCTYPE svg PUBLIC "-//W3C//DTD SVG 20010904//EN"
 "http://www.w3.org/TR/2001/REC-SVG-20010904/DTD/svg10.dtd">
<svg version="1.0" xmlns="http://www.w3.org/2000/svg"
 width="50.000000pt" height="32.000000pt" viewBox="0 0 500.000000 180.000000"
 preserveAspectRatio="xMidYMid meet">

<g transform="translate(0.000000,180.000000) scale(0.100000,-0.100000)"
fill="#000000" stroke="none">
<path d="M1152 1357 c-77 -9 -148 -43 -197 -94 -74 -76 -95 -146 -95 -313 0
-171 23 -245 102 -321 131 -127 404 -123 519 8 75 86 110 237 92 396 -28 234
-184 354 -421 324z m165 -130 c84 -44 117 -124 117 -282 -1 -136 -15 -179 -74
-237 -42 -40 -55 -47 -104 -53 -98 -13 -166 14 -213 84 -34 50 -43 95 -43 213
0 164 33 237 125 279 49 22 145 20 192 -4z"/>
<path d="M2036 1358 c-77 -10 -153 -46 -200 -94 -74 -76 -96 -149 -96 -320 0
-135 16 -204 65 -275 90 -129 309 -173 471 -94 99 49 157 143 176 289 13 107
-1 235 -35 310 -62 135 -208 206 -381 184z m171 -137 c44 -25 79 -72 95 -127
18 -62 14 -240 -6 -301 -38 -114 -172 -174 -284 -128 -47 20 -78 50 -105 100
-20 36 -22 56 -22 185 0 129 2 149 22 185 26 49 57 79 103 100 48 21 146 14
197 -14z"/>
<path d="M2985 1362 c-62 -9 -113 -29 -152 -59 -24 -18 -45 -33 -48 -33 -3 0
-4 13 -3 28 1 15 -1 33 -6 40 -9 16 -98 16 -114 0 -17 -17 -17 -759 0 -776 16
-16 103 -15 116 1 7 8 12 114 14 282 3 284 4 291 52 343 32 36 74 54 126 54
88 -1 148 -44 170 -123 5 -18 10 -147 10 -288 1 -163 5 -260 12 -268 11 -14
95 -18 115 -5 8 5 12 85 15 272 3 226 6 271 21 305 34 77 82 108 164 107 73
-1 126 -32 155 -91 21 -43 23 -62 28 -321 l5 -275 39 -3 c22 -2 50 -1 63 2
l23 6 0 279 c0 250 -2 284 -20 335 -23 66 -46 98 -100 138 -50 37 -89 49 -167
49 -80 0 -168 -37 -219 -93 -20 -22 -37 -38 -38 -36 -1 1 -13 18 -25 35 -41
60 -159 108 -236 95z"/>
<path d="M341 1336 c-8 -9 -10 -122 -9 -397 l3 -384 53 -3 c31 -2 60 2 68 9
11 9 14 59 14 268 0 228 2 260 19 297 29 63 69 86 160 91 126 7 122 5 119 71
l-3 57 -47 3 c-87 6 -157 -14 -210 -59 l-48 -40 0 44 c0 32 -5 47 -16 51 -28
11 -91 6 -103 -8z"/>
<path d="M3937 1335 c-14 -13 -11 -24 18 -92 209 -493 266 -630 267 -643 1 -8
-27 -80 -61 -159 -37 -87 -59 -151 -56 -162 5 -16 17 -19 60 -19 46 0 57 4 69
22 15 23 427 975 440 1016 5 14 3 29 -4 37 -16 19 -94 20 -113 1 -8 -8 -67
-139 -132 -291 -65 -151 -122 -272 -126 -268 -5 5 -60 131 -123 282 -63 151
-121 278 -128 283 -22 13 -96 9 -111 -7z"/>
</g>
</svg>
