           <svg
              width="58"
              height="28"
              viewBox="0 0 58 28"
              fill="none"
              xmlns="http://www.w3.org/2000/svg"
            >
              <path
                d="M0.233964 6.42712H1.15108V9.69104C1.15108 11.8557 2.23536 13 4.28628 13C5.22293 12.9943 6.13509 12.7059 6.89872 12.1739C6.9449 12.1434 6.9782 12.0975 6.9924 12.0447C7.00661 11.9919 7.00077 11.9359 6.97595 11.887L6.27406 10.5026C6.2597 10.4744 6.23939 10.4495 6.21466 10.4294C6.18992 10.4093 6.16124 10.3946 6.13035 10.386C6.09898 10.3775 6.06616 10.3754 6.03393 10.38C6.0017 10.3846 5.97081 10.3956 5.94322 10.4126C5.49625 10.7111 4.97525 10.8856 4.43548 10.9176C3.74576 10.9176 3.38082 10.4824 3.38082 9.65943V6.42802H5.97589C6.0367 6.42802 6.09512 6.4043 6.13811 6.36212C6.18111 6.31994 6.20506 6.26276 6.20506 6.20311V4.6283C6.20506 4.56861 6.1811 4.51131 6.13811 4.46906C6.09513 4.42681 6.03675 4.40295 5.97589 4.40283H3.38082V2.22491C3.38082 2.16526 3.35664 2.10807 3.31365 2.06589C3.27065 2.02371 3.21223 2 3.15142 2H1.37659C1.31574 2 1.25744 2.02361 1.21437 2.06578C1.1713 2.10795 1.14709 2.16522 1.14697 2.22491V4.40283H0.229622C0.168726 4.40295 0.110462 4.42682 0.0674016 4.46906C0.0243415 4.5113 0.000123647 4.56857 0 4.6283V6.20311C0.000180694 6.23294 0.00638687 6.26239 0.0182784 6.28984C0.0301699 6.3173 0.0474658 6.34218 0.0692294 6.36302C0.0909931 6.38386 0.116814 6.40032 0.145085 6.41132C0.173355 6.42231 0.203557 6.42767 0.233964 6.42712V6.42712Z"
                fill="#B8B8B8"
              />
              <path
                d="M11.2024 11.9962C12.4228 12.0426 13.6174 11.6623 14.5489 10.9309C14.5904 10.8978 14.6173 10.8516 14.6243 10.8013C14.6313 10.751 14.6179 10.7 14.5867 10.6582L13.7412 9.53701C13.7238 9.51422 13.7016 9.4949 13.6759 9.48023C13.6503 9.46555 13.6216 9.45577 13.5917 9.45153C13.5619 9.44663 13.5311 9.44789 13.5018 9.45509C13.4725 9.46229 13.4453 9.47529 13.422 9.49325C12.821 9.93918 12.0785 10.1903 11.3085 10.2081C10.8394 10.2374 10.3746 10.1093 9.99898 9.84728C9.62341 9.5853 9.36217 9.20693 9.2632 8.78132H14.7465C14.8018 8.7813 14.8549 8.76206 14.8956 8.72749C14.9363 8.69291 14.9614 8.64552 14.9661 8.59458C14.9846 8.40827 15 8.19947 15 7.98981C14.9923 5.64061 13.3873 4 11.0971 4C8.68342 4 7 5.64395 7 7.99815C7 10.3524 8.72659 11.9962 11.2024 11.9962ZM9.26869 7.17611C9.33595 6.78456 9.55564 6.42942 9.88643 6.17762C10.2172 5.92582 10.6361 5.79485 11.0641 5.80944C11.9488 5.80944 12.5498 6.29246 12.7718 7.17611H9.26869Z"
                fill="#B8B8B8"
              />
              <path
                d="M20.0599 11.9959C20.6029 12.012 21.1428 11.911 21.642 11.6998C22.1413 11.4887 22.5878 11.1726 22.95 10.7736C22.9827 10.736 23.0005 10.6879 23 10.6384C22.9995 10.5888 22.9808 10.5411 22.9473 10.5041L21.9627 9.42087C21.9251 9.38012 21.8725 9.35567 21.8167 9.35293C21.7616 9.35367 21.7085 9.37312 21.6662 9.40795C21.2248 9.83827 20.6339 10.0874 20.0132 10.105C18.8821 10.105 18.0602 9.2201 18.0602 8.00026C18.0602 6.78041 18.8821 5.89512 20.0132 5.89512C20.3156 5.89673 20.6145 5.95855 20.8919 6.07698C21.1694 6.1954 21.4198 6.36789 21.6278 6.58412C21.6685 6.62026 21.7212 6.64018 21.776 6.63996C21.8311 6.63776 21.8833 6.61443 21.9212 6.57496L22.944 5.49925C22.9785 5.46263 22.9983 5.41491 22.9996 5.36499C23.0009 5.31507 22.9837 5.26643 22.9513 5.22809C22.5911 4.82619 22.1449 4.50795 21.6449 4.2963C21.145 4.08465 20.6037 3.98487 20.0599 4.00408C19.5206 3.97952 18.9821 4.06602 18.4787 4.25816C17.9753 4.4503 17.5181 4.74387 17.1364 5.11997C16.7548 5.49606 16.457 5.94648 16.262 6.44243C16.0671 6.93838 15.9792 7.46897 16.0042 8.00026C15.9792 8.53151 16.067 9.06197 16.262 9.55788C16.457 10.0538 16.755 10.5042 17.1366 10.8802C17.5183 11.2563 17.9754 11.5497 18.4787 11.7418C18.982 11.934 19.5206 12.0205 20.0599 11.9959V11.9959Z"
                fill="#B8B8B8"
              />
              <path
                d="M30.761 11.7808C30.761 11.8386 30.7852 11.894 30.8283 11.9348C30.8714 11.9757 30.9296 11.9987 30.9905 11.9987H32.7681C32.829 11.9987 32.8875 11.9757 32.9305 11.9348C32.9736 11.894 32.9978 11.8386 32.9978 11.7808V6.94576C33.0147 6.50548 32.9347 6.06678 32.7628 5.65753C32.591 5.24828 32.331 4.87757 31.9996 4.56909C31.6683 4.2606 31.2728 4.02106 30.8384 3.8659C30.404 3.71074 29.9401 3.64335 29.4767 3.66795C28.6565 3.64313 27.8567 3.91314 27.2372 4.42402V0.218361C27.2371 0.160481 27.2128 0.104992 27.1697 0.0640643C27.1266 0.0231362 27.068 0.000117525 27.0071 0H25.2299C25.1689 0.000117525 25.1106 0.0231362 25.0675 0.0640643C25.0244 0.104992 25.0001 0.160481 25 0.218361V11.7821C25.0001 11.8399 25.0244 11.8954 25.0675 11.9363C25.1106 11.9771 25.169 12 25.2299 12H27.0071C27.068 12 27.1266 11.9771 27.1697 11.9363C27.2128 11.8954 27.2371 11.8399 27.2372 11.7821V7.51778C27.2171 7.27824 27.2511 7.03741 27.3372 6.81144C27.4233 6.58548 27.5594 6.37956 27.7364 6.20772C27.9133 6.03588 28.127 5.90208 28.363 5.81519C28.599 5.7283 28.852 5.69034 29.1047 5.704C30.1725 5.704 30.761 6.34223 30.761 7.50171V11.7808Z"
                fill="#B8B8B8"
              />
              <path
                d="M7.79141 17.1926H6.18884C6.13354 17.1926 6.08052 17.2145 6.04142 17.2535C6.00232 17.2925 5.98025 17.3454 5.98025 17.4006V17.7601C5.40113 17.252 4.65125 16.9809 3.88047 17.001C1.6685 17.001 0 18.7488 0 21.0665C0 23.3842 1.6685 25.1305 3.88047 25.1305C4.65014 25.1517 5.3996 24.8834 5.98025 24.3788V27.7923C5.98036 27.8475 6.00254 27.9003 6.04162 27.9393C6.08071 27.9782 6.13362 28 6.18884 28H7.79141C7.84663 28 7.89954 27.9782 7.93863 27.9393C7.97771 27.9003 7.99989 27.8475 8 27.7923V17.4006C8 17.3454 7.97793 17.2925 7.93883 17.2535C7.89973 17.2145 7.84671 17.1926 7.79141 17.1926V17.1926ZM6.07978 21.0665C6.07978 22.3268 5.25468 23.2074 4.07205 23.2074C2.88942 23.2074 2.06474 22.3268 2.06474 21.0665C2.06474 19.8061 2.89027 18.9245 4.07205 18.9245C5.25383 18.9245 6.07978 19.8053 6.07978 21.0665Z"
                fill="#B8B8B8"
              />
              <path
                d="M17.7693 17H15.9867C15.9255 17.0001 15.8669 17.0223 15.8237 17.0616C15.7805 17.1009 15.7562 17.1541 15.7562 17.2097V21.3201C15.7562 22.4759 15.1656 23.0619 14.0005 23.0619C12.8353 23.0619 12.2438 22.4759 12.2438 21.3201V17.2097C12.2438 17.1541 12.2194 17.1007 12.1761 17.0614C12.1328 17.0221 12.0741 17 12.0129 17H10.2303C10.2 17 10.1701 17.0054 10.1421 17.016C10.1141 17.0265 10.0887 17.0419 10.0673 17.0614C10.0459 17.0809 10.029 17.1041 10.0174 17.1295C10.0059 17.1549 9.99994 17.1822 10 17.2097V21.4666C10 24.0745 12.1544 25 14.0005 25C15.8465 25 18 24.0745 18 21.4666V17.2097C18.0001 17.1821 17.9941 17.1549 17.9826 17.1294C17.971 17.1039 17.9542 17.0808 17.9327 17.0613C17.9113 17.0418 17.8857 17.0264 17.8577 17.0158C17.8296 17.0053 17.7996 16.9999 17.7693 17V17Z"
                fill="#B8B8B8"
              />
              <path
                d="M26.7914 17.1894H25.1892C25.1618 17.1894 25.1347 17.1946 25.1094 17.2049C25.0841 17.2152 25.0612 17.2303 25.0418 17.2493C25.0224 17.2683 25.007 17.2909 24.9966 17.3157C24.9861 17.3406 24.9808 17.3672 24.9808 17.3941V17.7477C24.4016 17.2481 23.6515 16.9814 22.8808 17.001C20.6683 17.001 19 18.7204 19 21.0006C19 23.2808 20.6683 24.9989 22.8808 24.9989C23.6504 25.0196 24.4001 24.7556 24.9808 24.2593V24.6062C24.9808 24.633 24.9861 24.6596 24.9966 24.6844C25.0071 24.7093 25.0224 24.7317 25.0418 24.7507C25.0611 24.7697 25.0843 24.7847 25.1096 24.795C25.1349 24.8052 25.1618 24.8105 25.1892 24.8105H26.7914C26.8466 24.8105 26.8997 24.7889 26.9388 24.7506C26.9779 24.7123 26.9999 24.6604 27 24.6062V17.3933C26.9998 17.3392 26.9777 17.2873 26.9386 17.2491C26.8995 17.2109 26.8466 17.1894 26.7914 17.1894ZM25.0801 21.0006C25.0801 22.2405 24.2546 23.1069 23.0728 23.1069C21.891 23.1069 21.065 22.2405 21.065 21.0006C21.065 19.7607 21.8901 18.8934 23.0728 18.8934C24.2554 18.8934 25.0801 19.7598 25.0801 21.0006Z"
                fill="#B8B8B8"
              />
              <path
                d="M35.8536 17.2252C35.3862 17.0652 34.8883 16.9893 34.3884 17.002C33.6027 16.9755 32.835 17.2179 32.2401 17.6803V17.4045C32.2401 17.377 32.2341 17.3497 32.2225 17.3243C32.2108 17.2988 32.1936 17.2757 32.1719 17.2562C32.1503 17.2367 32.1247 17.2213 32.0964 17.2107C32.0681 17.2002 32.0378 17.1948 32.0072 17.1949H30.2329C30.1711 17.1949 30.1118 17.217 30.0681 17.2563C30.0244 17.2956 30 17.3489 30 17.4045V24.7908C30.0001 24.8463 30.0247 24.8995 30.0684 24.9387C30.112 24.9779 30.1711 25 30.2329 25H32.0237C32.0854 25 32.1447 24.9779 32.1884 24.9387C32.2321 24.8995 32.2566 24.8463 32.2567 24.7908V20.7279C32.2567 19.6349 32.9158 18.9565 33.9773 18.9565C34.4106 18.9554 34.8389 19.0393 35.2324 19.2024C35.2637 19.2172 35.2984 19.2254 35.3337 19.2263C35.369 19.2271 35.4041 19.2205 35.4361 19.2071C35.4683 19.1939 35.4968 19.1743 35.5193 19.1497C35.5418 19.1252 35.5578 19.0964 35.5661 19.0654L35.9931 17.4699C36.0067 17.4208 36 17.3689 35.9743 17.3239C35.9487 17.2789 35.9059 17.2439 35.8536 17.2252V17.2252Z"
                fill="#B8B8B8"
              />
              <path
                d="M42.2767 23.5025C42.2625 23.4743 42.2424 23.4494 42.2178 23.4293C42.1931 23.4092 42.1643 23.3945 42.1334 23.3859C42.1021 23.3768 42.0691 23.3744 42.0367 23.379C42.0044 23.3836 41.9736 23.395 41.9462 23.4125C41.4988 23.7107 40.9777 23.8851 40.4377 23.9174C39.7476 23.9174 39.3825 23.4823 39.3825 22.659V19.4284H41.9784C42.0394 19.4284 42.0979 19.4047 42.141 19.3624C42.1841 19.3202 42.2084 19.2629 42.2084 19.2031V17.6288C42.2084 17.5691 42.1841 17.5118 42.141 17.4695C42.0979 17.4273 42.0394 17.4035 41.9784 17.4035H39.3825V15.2254C39.3825 15.1657 39.3582 15.1084 39.3151 15.0661C39.272 15.0238 39.2135 15 39.1525 15H37.3777C37.3168 15.0001 37.2585 15.024 37.2154 15.0662C37.1724 15.1085 37.1481 15.1657 37.148 15.2254V17.4035H36.23C36.169 17.4035 36.1105 17.4273 36.0674 17.4695C36.0243 17.5118 36 17.5691 36 17.6288V19.2031C36 19.2629 36.0243 19.3202 36.0674 19.3624C36.1105 19.4047 36.169 19.4284 36.23 19.4284H37.148V22.6919C37.148 24.8558 38.2331 26 40.2845 26C41.2217 25.9945 42.1343 25.7061 42.8983 25.174C42.9446 25.1436 42.9782 25.0977 42.9925 25.0449C43.0067 24.9921 43.0006 24.936 42.9756 24.8871L42.2767 23.5025Z"
                fill="#B8B8B8"
              />
              <path
                d="M47.0959 17C44.683 17 43 18.6444 43 20.9988C43 23.3531 44.7283 24.9962 47.2034 24.9962C48.4234 25.0427 49.6176 24.6624 50.5486 23.9308C50.5903 23.8978 50.6173 23.8516 50.6244 23.8012C50.6315 23.7509 50.618 23.6999 50.5868 23.6581L49.7411 22.5373C49.7238 22.5144 49.7017 22.4951 49.6761 22.4804C49.6505 22.4657 49.6219 22.4559 49.5921 22.4518C49.5622 22.4478 49.5317 22.4494 49.5025 22.4566C49.4732 22.4637 49.4459 22.4763 49.422 22.4935C48.8211 22.9393 48.079 23.1904 47.3093 23.2083C46.8403 23.2376 46.3755 23.1095 46.0001 22.8474C45.6247 22.5853 45.3638 22.2068 45.265 21.7811H50.747C50.8024 21.7811 50.8559 21.7618 50.8967 21.7271C50.9375 21.6924 50.9626 21.6447 50.9673 21.5936C50.9844 21.4081 51 21.1988 51 20.9891C50.9901 18.6406 49.3856 17 47.0959 17ZM45.2676 20.1763C45.3349 19.7846 45.5546 19.4293 45.8854 19.1775C46.2162 18.9257 46.635 18.7947 47.063 18.8094C47.9479 18.8094 48.5485 19.2922 48.7704 20.1763H45.2676Z"
                fill="#B8B8B8"
              />
              <path
                d="M57.8537 17.2252C57.3865 17.0651 56.889 16.9893 56.3893 17.002C55.6034 16.9755 54.8356 17.2179 54.2403 17.6803V17.4045C54.2403 17.3489 54.2157 17.2956 54.172 17.2563C54.1283 17.217 54.069 17.1949 54.0072 17.1949H52.2331C52.1713 17.1949 52.1118 17.217 52.0681 17.2563C52.0244 17.2956 52 17.3489 52 17.4045V24.7908C52.0001 24.8463 52.0247 24.8995 52.0684 24.9387C52.112 24.9779 52.1714 25 52.2331 25H54.0239C54.0856 25 54.1446 24.9779 54.1882 24.9387C54.2318 24.8995 54.2563 24.8463 54.2563 24.7908V20.7279C54.2563 19.6349 54.9158 18.9565 55.9783 18.9565C56.411 18.9552 56.8388 19.0391 57.2316 19.2024C57.263 19.2172 57.2978 19.2254 57.3333 19.2262C57.3687 19.2271 57.4039 19.2205 57.4362 19.2071C57.4684 19.1939 57.4968 19.1743 57.5193 19.1497C57.5419 19.1252 57.5579 19.0964 57.5661 19.0654L57.9932 17.4699C58.0067 17.4208 58 17.369 57.9744 17.324C57.9487 17.2791 57.9059 17.244 57.8537 17.2252V17.2252Z"
                fill="#B8B8B8"
              />
            </svg>