<svg width="41" height="32" viewBox="0 0 41 32" fill="none" xmlns="http://www.w3.org/2000/svg">
<path d="M33.8906 15.4965C33.8939 17.7388 33.4123 19.9561 32.478 22L25.8906 15.4965L32.4714 9C33.4117 11.0397 33.8957 13.2555 33.8906 15.4965Z" fill="#FBAE17"/>
<path d="M24.8906 1.43982L2.39107 23C1.39469 20.8965 0.882946 18.6121 0.890712 16.3021C0.890149 14.1611 1.32984 12.0411 2.18464 10.0629C3.03943 8.08481 4.29259 6.2874 5.87253 4.77349C7.45247 3.25959 9.32822 2.05879 11.3926 1.23976C13.457 0.420724 15.6695 -0.00060261 17.9039 4.51254e-06C20.3131 -0.00171713 22.6951 0.489215 24.8906 1.43982Z" fill="#F05B40"/>
<path d="M32.8906 8.96658C31.1895 5.42783 28.1624 2.59405 24.3808 1L1.89062 22.0393C3.59463 25.5768 6.62396 28.4086 10.4068 30L32.8906 8.96658Z" fill="#F6921E"/>
<path d="M25.8906 32H17.6625C15.3263 32.0042 13.0166 31.5189 10.8906 30.5774L17.6625 24L25.8906 32Z" fill="#FBAE17"/>
<path d="M39.2341 32H26.3451L12.3873 18.7519C12.1501 18.5263 11.9885 18.2392 11.9231 17.9266C11.8578 17.614 11.8915 17.29 12.02 16.9955C12.1485 16.7011 12.366 16.4493 12.6451 16.2721C12.9243 16.095 13.2525 16.0002 13.5883 16H26.3664L33.2993 22.5803L40.4076 29.3202C40.6386 29.5401 40.7958 29.8201 40.8592 30.1248C40.9227 30.4295 40.8895 30.7452 40.764 31.032C40.6384 31.3188 40.426 31.5639 40.1537 31.7362C39.8814 31.9085 39.5614 32.0003 39.2341 32Z" fill="#FFC132"/>
</svg>
