<?xml version="1.0" standalone="no"?>
<!DOCTYPE svg PUBLIC "-//W3C//DTD SVG 20010904//EN"
 "http://www.w3.org/TR/2001/REC-SVG-20010904/DTD/svg10.dtd">
<svg version="1.0" xmlns="http://www.w3.org/2000/svg"
 width="32.000000pt" height="32.000000pt" viewBox="0 0 180.000000 180.000000"
 preserveAspectRatio="xMidYMid meet">

<g transform="translate(0.000000,180.000000) scale(0.10000,-0.100000)"
fill="#F6921E" stroke="none">
<path d="M525 1568 c-276 -158 -343 -200 -367 -232 l-28 -39 0 -401 0 -401 24
-35 c18 -28 95 -75 354 -223 182 -104 347 -192 367 -197 20 -5 50 -4 68 1 17
5 179 93 360 196 225 129 336 197 351 218 21 29 21 39 24 430 3 418 1 433 -41
473 -12 12 -172 107 -356 211 -287 164 -340 191 -376 191 -36 0 -90 -27 -380
-192z m546 -90 c23 -40 50 -87 60 -103 l18 -30 -62 -108 -61 -107 -118 0 -118
0 -23 38 c-13 20 -41 69 -62 108 l-39 70 59 102 59 102 122 0 123 0 42 -72z
m-418 -185 c13 -21 41 -69 62 -108 l38 -70 -59 -102 -58 -103 -123 0 -122 0
-42 73 c-23 39 -50 86 -60 102 l-18 31 61 107 60 107 119 0 119 0 23 -37z
m829 -71 l59 -103 -58 -104 -58 -105 -125 0 -125 0 -58 105 -58 104 61 106 62
106 120 -3 120 -3 60 -103z m-789 -456 l57 -103 -61 -107 -61 -106 -118 0
-118 0 -62 106 -61 106 58 104 58 104 125 0 125 0 58 -104z m791 0 l57 -105
-59 -103 -60 -103 -120 -3 -120 -3 -57 103 c-32 56 -58 107 -58 113 0 6 19 44
43 85 76 134 53 120 194 120 l123 0 57 -104z m-396 -212 l60 -106 -60 -104
-60 -104 -121 0 -122 0 -58 101 c-32 55 -57 105 -55 112 2 7 28 56 58 110 l55
97 122 0 121 0 60 -106z"/>
</g>
</svg>
