<svg width="18" height="21" viewBox="0 0 18 21" fill="none" xmlns="http://www.w3.org/2000/svg">
<path d="M8.85724 10.4935C10.1808 10.4935 11.3267 10.0188 12.2633 9.08217C13.1996 8.14574 13.6744 6.99996 13.6744 5.67626C13.6744 4.35302 13.1997 3.20709 12.2632 2.27035C11.3266 1.33408 10.1806 0.859375 8.85724 0.859375C7.53354 0.859375 6.38776 1.33408 5.45132 2.27051C4.51489 3.20694 4.04004 4.35287 4.04004 5.67626C4.04004 6.99996 4.51489 8.14589 5.45132 9.08232C6.38806 10.0186 7.534 10.4935 8.85724 10.4935ZM6.28018 3.09921C6.99872 2.38067 7.84161 2.0314 8.85724 2.0314C9.87271 2.0314 10.7158 2.38067 11.4344 3.09921C12.153 3.8179 12.5024 4.66094 12.5024 5.67626C12.5024 6.69188 12.153 7.53478 11.4344 8.25346C10.7158 8.97215 9.87271 9.32143 8.85724 9.32143C7.84192 9.32143 6.99902 8.972 6.28018 8.25346C5.56149 7.53493 5.21207 6.69188 5.21207 5.67626C5.21207 4.66094 5.56149 3.8179 6.28018 3.09921Z" fill="#202020"/>
<path d="M17.2863 16.2382C17.2593 15.8485 17.2047 15.4234 17.1242 14.9745C17.0431 14.5222 16.9385 14.0947 16.8134 13.7039C16.684 13.3 16.5084 12.9011 16.291 12.5189C16.0656 12.1222 15.8007 11.7767 15.5034 11.4925C15.1926 11.1951 14.8121 10.956 14.372 10.7816C13.9335 10.6081 13.4475 10.5202 12.9276 10.5202C12.7234 10.5202 12.526 10.6039 12.1447 10.8522C11.91 11.0052 11.6355 11.1822 11.3291 11.378C11.0671 11.545 10.7122 11.7014 10.2738 11.843C9.8461 11.9814 9.41183 12.0515 8.98306 12.0515C8.5546 12.0515 8.12033 11.9814 7.69232 11.843C7.25439 11.7015 6.89932 11.5451 6.63779 11.3782C6.33429 11.1842 6.05963 11.0072 5.82144 10.8521C5.44043 10.6038 5.24298 10.52 5.03882 10.52C4.5188 10.52 4.03296 10.6081 3.59457 10.7817C3.15482 10.9558 2.77411 11.1949 2.46298 11.4926C2.16574 11.777 1.90085 12.1223 1.67563 12.5189C1.4585 12.9011 1.28271 13.2999 1.15332 13.7041C1.02835 14.0948 0.923828 14.5222 0.842651 14.9745C0.762085 15.4228 0.707611 15.8481 0.680603 16.2387C0.654053 16.6206 0.640625 17.0181 0.640625 17.4197C0.640625 18.4637 0.972504 19.3089 1.62695 19.9322C2.27332 20.5473 3.12842 20.8592 4.16861 20.8592H13.7987C14.8386 20.8592 15.6937 20.5473 16.3402 19.9322C16.9948 19.3094 17.3267 18.4639 17.3267 17.4196C17.3266 17.0166 17.313 16.6191 17.2863 16.2382ZM15.5321 19.0831C15.105 19.4896 14.538 19.6872 13.7986 19.6872H4.16861C3.42902 19.6872 2.862 19.4896 2.43506 19.0832C2.0162 18.6845 1.81265 18.1402 1.81265 17.4197C1.81265 17.045 1.82501 16.6749 1.84973 16.3197C1.87384 15.9712 1.92313 15.5884 1.99622 15.1816C2.06839 14.7798 2.16025 14.4028 2.2695 14.0614C2.37433 13.7341 2.5173 13.41 2.69461 13.0978C2.86383 12.8003 3.05853 12.545 3.27338 12.3393C3.47433 12.1469 3.72763 11.9894 4.02609 11.8713C4.30212 11.7621 4.61234 11.7023 4.9491 11.6933C4.99014 11.7151 5.06323 11.7567 5.18164 11.834C5.42258 11.991 5.70029 12.1701 6.00729 12.3662C6.35336 12.5868 6.79922 12.7861 7.33191 12.9581C7.8765 13.1342 8.43192 13.2236 8.98322 13.2236C9.53452 13.2236 10.0901 13.1342 10.6344 12.9582C11.1675 12.7859 11.6132 12.5868 11.9597 12.3659C12.2739 12.1651 12.5439 11.9911 12.7848 11.834C12.9032 11.7569 12.9763 11.7151 13.0173 11.6933C13.3542 11.7023 13.6645 11.7621 13.9406 11.8713C14.239 11.9894 14.4922 12.1471 14.6932 12.3393C14.9081 12.5449 15.1028 12.8001 15.272 13.098C15.4494 13.41 15.5926 13.7343 15.6972 14.0613C15.8066 14.4031 15.8987 14.78 15.9707 15.1814C16.0436 15.589 16.093 15.972 16.1172 16.3199V16.3202C16.142 16.674 16.1545 17.0439 16.1547 17.4197C16.1545 18.1404 15.951 18.6845 15.5321 19.0831Z" fill="#202020"/>
</svg>
